# File created by Blade
# Date/Time:  Tue Sep 23 19:15:59 2014
# Frame Rate: 120.000 fps
#------------------------------------------------------
:FULLY-SPECIFIED
:DEGREES
1542
root 2.488540 33.080906 -5.594577 56.318905 -40.989584 -37.551598
Spine -33.748782 -11.771959 33.246640
Head 6.045193 -5.320138 3.547693
LeftShoulder 6.920417 44.377927 32.257940
LeftArm 78.230594 26.136560 -43.156177
LeftForeArm 13.576236 -0.000000 76.579428
LeftHand 43.711639 -0.000000 8.279174
LeftHandThumb1 -26.253704 0.000000 33.147579
RightShoulder -13.831557 -54.757486 -5.448699
RightArm 55.396770 -0.385927 65.062779
RightForeArm 16.035962 -0.000000 100.900312
RightHand -0.640808 -0.000000 9.761195
RightHandThumb1 -24.326973 -0.000000 -32.862282
LeftUpLeg -40.174357 14.747034 14.196695
LeftLeg 25.905014 -0.000000 -0.000000
LeftFoot -14.867644 18.016809 7.789164
LeftToeBase 4.910783 -0.000000 -0.000000
RightUpLeg -159.808812 -17.529811 25.744571
RightLeg 124.699261 -0.000000 -0.000000
RightFoot 41.784323 -7.742141 4.060052
RightToeBase 47.425485 -0.000000 -0.000000
1543
root 2.489622 33.072132 -5.593815 56.339158 -41.070084 -37.665947
Spine -33.753208 -11.875025 33.290186
Head 6.228639 -5.120598 3.741938
LeftShoulder 6.998685 44.512407 32.386464
LeftArm 78.057244 26.071256 -43.416244
LeftForeArm 14.286435 -0.000000 76.717859
LeftHand 43.473104 -0.000000 8.694629
LeftHandThumb1 -26.253704 0.000000 33.147579
RightShoulder -13.711786 -54.516635 -5.391113
RightArm 55.502921 -0.013918 65.003414
RightForeArm 16.196302 -0.000000 99.766456
RightHand -0.423419 -0.000000 9.633693
RightHandThumb1 -24.326973 -0.000000 -32.862282
LeftUpLeg -40.221070 15.070177 14.150288
LeftLeg 26.227518 -0.000000 -0.000000
LeftFoot -15.547705 17.547458 6.453649
LeftToeBase 5.356195 -0.000000 -0.000000
RightUpLeg -159.571737 -17.486175 25.729542
RightLeg 124.323934 -0.000000 -0.000000
RightFoot 41.684491 -7.729035 3.854796
RightToeBase 47.602065 -0.000000 -0.000000
1544
root 2.496038 33.063160 -5.598970 56.385345 -41.198124 -37.893133
Spine -33.639687 -11.943021 33.299145
Head 6.419384 -4.944756 3.959722
LeftShoulder 7.082465 44.631574 32.541025
LeftArm 77.879851 25.974956 -43.700087
LeftForeArm 15.085843 -0.000000 76.839971
LeftHand 43.453513 -0.000000 8.669886
LeftHandThumb1 -26.253704 0.000000 33.147579
RightShoulder -13.520251 -54.282244 -5.335394
RightArm 55.648708 0.342517 64.822564
RightForeArm 16.363026 -0.000000 98.343409
RightHand -0.098321 -0.000000 9.546080
RightHandThumb1 -24.326973 -0.000000 -32.862282
LeftUpLeg -40.196464 15.383301 14.182778
LeftLeg 26.553519 -0.000000 -0.000000
LeftFoot -16.130467 17.202269 5.351451
LeftToeBase 4.312460 -0.000000 -0.000000
RightUpLeg -159.220693 -17.359483 25.674456
RightLeg 123.947456 -0.000000 -0.000000
RightFoot 41.688856 -7.499886 3.645496
RightToeBase 47.732579 -0.000000 -0.000000
1545
root 2.501968 33.052994 -5.598956 56.427979 -41.345826 -38.084851
Spine -33.566756 -11.998670 33.286572
Head 6.614795 -4.828568 4.136923
LeftShoulder 7.112589 44.726348 32.663365
LeftArm 77.786838 25.897802 -43.834540
LeftForeArm 15.717808 -0.000000 76.901885
LeftHand 43.259497 -0.000000 9.036360
LeftHandThumb1 -26.253704 0.000000 33.147579
RightShoulder -13.261283 -54.054012 -5.327589
RightArm 55.790140 0.649210 64.534495
RightForeArm 16.680262 -0.000000 96.708538
RightHand 0.377963 0.000000 9.298121
RightHandThumb1 -24.326973 -0.000000 -32.862282
LeftUpLeg -40.246176 15.885271 14.059425
LeftLeg 26.925707 -0.000000 -0.000000
LeftFoot -16.689301 16.589367 4.491971
LeftToeBase 4.098385 -0.000000 -0.000000
RightUpLeg -158.926278 -17.241442 25.638892
RightLeg 123.627443 -0.000000 -0.000000
RightFoot 41.708406 -7.338724 3.485156
RightToeBase 47.736096 -0.000000 -0.000000
1546
root 2.501708 33.039757 -5.591161 56.291675 -41.512261 -38.109419
Spine -33.521939 -12.162608 33.184671
Head 6.866622 -4.721858 4.283705
LeftShoulder 7.149335 44.787687 32.788713
LeftArm 77.739651 25.843279 -43.850019
LeftForeArm 15.852509 -0.000000 76.876878
LeftHand 43.208498 0.000000 9.054459
LeftHandThumb1 -26.253704 0.000000 33.147579
RightShoulder -12.873350 -53.946653 -5.395771
RightArm 55.994189 0.971969 64.265719
RightForeArm 17.117417 -0.000000 94.787882
RightHand 1.188689 -0.000000 8.923317
RightHandThumb1 -24.326973 -0.000000 -32.862282
LeftUpLeg -40.150087 16.127255 13.938162
LeftLeg 27.186445 -0.000000 -0.000000
LeftFoot -17.249703 15.979692 3.508872
LeftToeBase 4.892485 -0.000000 -0.000000
RightUpLeg -158.686543 -17.241881 25.524282
RightLeg 123.418832 -0.000000 -0.000000
RightFoot 41.747055 -7.404776 3.531836
RightToeBase 47.802901 -0.000000 -0.000000
